<svg width="214" height="72" viewBox="0 0 214 72" fill="none" xmlns="http://www.w3.org/2000/svg">
<rect width="213" height="72" transform="translate(0.507812)" fill="white"/>
<path d="M62.4483 30.7598L63.7563 29.32V36.2444L63.0748 35.3761H69.1419V37.6842H63.0748L63.7563 36.8269V43.7953L62.4483 42.3554H70.362V44.6636H60.8436V28.4517H70.362V30.7598H62.4483ZM80.4743 44.6636V39.9264C80.4743 39.4941 80.4743 39.1167 80.4743 38.7943C80.4743 38.4646 80.4743 38.1898 80.4743 37.97C80.4743 37.6842 80.456 37.3874 80.4194 37.0797C80.3827 36.7646 80.3021 36.4752 80.1776 36.2114C80.053 35.9476 79.8588 35.7351 79.595 35.5739C79.3386 35.4054 78.9832 35.3211 78.5289 35.3211C78.0892 35.3211 77.7155 35.4127 77.4078 35.5959C77.1074 35.7717 76.8582 36.0099 76.6604 36.3103C76.4699 36.6034 76.3307 36.9405 76.2427 37.3215C76.1548 37.6952 76.1108 38.0799 76.1108 38.4756L75.1436 37.8271C75.1436 36.8672 75.3231 36.0099 75.6822 35.2552C76.0412 34.5004 76.5505 33.9033 77.2099 33.4636C77.8767 33.0166 78.6644 32.7932 79.573 32.7932C80.5109 32.7932 81.2547 32.991 81.8042 33.3867C82.3538 33.775 82.7458 34.3026 82.9803 34.9694C83.2221 35.6362 83.343 36.3836 83.343 37.2116C83.343 37.5193 83.343 37.9297 83.343 38.4426C83.343 38.9482 83.343 39.5454 83.343 40.2341V44.6636H80.4743ZM73.2202 44.6636V32.991H76.1108V44.6636H73.2202ZM87.6845 44.6636V39.9374C87.6845 39.4758 87.6845 39.0837 87.6845 38.7613C87.6845 38.4389 87.6845 38.1678 87.6845 37.948C87.6845 37.6402 87.6662 37.3325 87.6295 37.0247C87.5929 36.7097 87.5123 36.4276 87.3877 36.1784C87.2632 35.922 87.069 35.7168 86.8052 35.5629C86.5414 35.4017 86.1824 35.3211 85.7281 35.3211C85.2811 35.3211 84.9037 35.409 84.596 35.5849C84.2956 35.7608 84.0538 35.9952 83.8706 36.2883C83.6874 36.5814 83.5518 36.9112 83.4639 37.2775C83.3833 37.6439 83.343 38.0103 83.343 38.3766L82.3758 37.7392C82.3758 36.8086 82.5516 35.9696 82.9034 35.2222C83.2551 34.4748 83.7607 33.8849 84.4201 33.4526C85.0796 33.013 85.8636 32.7932 86.7722 32.7932C87.6882 32.7932 88.4246 32.98 88.9814 33.3537C89.5383 33.7274 89.9413 34.2403 90.1905 34.8925C90.4469 35.5373 90.5752 36.2737 90.5752 37.1017C90.5752 37.4241 90.5752 37.8344 90.5752 38.3327C90.5752 38.8309 90.5752 39.4208 90.5752 40.1023V44.6636H87.6845ZM93.3563 49.4667V32.991H96.2469V49.4667H93.3563ZM99.929 44.9054C99.0204 44.9054 98.1777 44.6709 97.401 44.2019C96.6316 43.7257 96.0088 43.0772 95.5325 42.2565C95.0636 41.4358 94.8291 40.5126 94.8291 39.4868C94.8291 39.4574 94.8291 39.4318 94.8291 39.4098C94.8291 39.3805 94.8291 39.3549 94.8291 39.3329L96.2579 39.2999C96.2579 39.3146 96.2579 39.3329 96.2579 39.3549C96.2579 39.3768 96.2579 39.3952 96.2579 39.4098C96.2579 39.9814 96.4008 40.4906 96.6866 40.9376C96.9723 41.3772 97.3424 41.7253 97.7967 41.9817C98.2583 42.2309 98.7492 42.3554 99.2695 42.3554C100.112 42.3554 100.83 42.066 101.424 41.4871C102.017 40.9083 102.314 40.0107 102.314 38.7943C102.314 37.5706 102.017 36.6767 101.424 36.1125C100.838 35.5409 100.119 35.2552 99.2695 35.2552C98.7566 35.2552 98.2693 35.3797 97.8077 35.6289C97.3534 35.8707 96.9797 36.2077 96.6866 36.64C96.4008 37.0724 96.2579 37.578 96.2579 38.1568L94.8291 38.0909C94.8291 37.0577 95.0636 36.1418 95.5325 35.3431C96.0088 34.5444 96.6316 33.9216 97.401 33.4746C98.1777 33.0203 99.0204 32.7932 99.929 32.7932C100.874 32.7932 101.753 33.024 102.567 33.4856C103.388 33.9472 104.047 34.625 104.545 35.519C105.051 36.4129 105.304 37.5047 105.304 38.7943C105.304 40.1206 105.058 41.238 104.567 42.1466C104.076 43.0552 103.424 43.744 102.611 44.2129C101.797 44.6746 100.904 44.9054 99.929 44.9054ZM110.708 27.4844V44.6636H107.861V27.4844H110.708ZM119.401 44.8944C118.17 44.8944 117.086 44.6379 116.148 44.125C115.21 43.6048 114.474 42.8867 113.939 41.9707C113.411 41.0548 113.148 40.007 113.148 38.8273C113.148 37.6402 113.411 36.5961 113.939 35.6948C114.474 34.7862 115.21 34.0755 116.148 33.5625C117.086 33.0496 118.17 32.7932 119.401 32.7932C120.632 32.7932 121.717 33.0496 122.655 33.5625C123.593 34.0755 124.325 34.7862 124.853 35.6948C125.388 36.5961 125.655 37.6402 125.655 38.8273C125.655 40.007 125.388 41.0548 124.853 41.9707C124.325 42.8867 123.593 43.6048 122.655 44.125C121.717 44.6379 120.632 44.8944 119.401 44.8944ZM119.401 42.5313C120.068 42.5313 120.651 42.3774 121.149 42.0697C121.647 41.7619 122.036 41.3333 122.314 40.7837C122.593 40.2268 122.732 39.5747 122.732 38.8273C122.732 38.0799 122.593 37.4351 122.314 36.8928C122.036 36.3433 121.647 35.9183 121.149 35.6179C120.651 35.3174 120.068 35.1672 119.401 35.1672C118.742 35.1672 118.159 35.3174 117.654 35.6179C117.156 35.9183 116.767 36.3433 116.489 36.8928C116.21 37.4351 116.071 38.0799 116.071 38.8273C116.071 39.5747 116.21 40.2268 116.489 40.7837C116.767 41.3333 117.156 41.7619 117.654 42.0697C118.159 42.3774 118.742 42.5313 119.401 42.5313ZM128.204 49.6755C127.86 49.6755 127.552 49.6572 127.281 49.6206C127.01 49.5913 126.841 49.562 126.775 49.5326V47.2795C126.871 47.3234 127.032 47.3564 127.259 47.3784C127.494 47.4077 127.735 47.4223 127.985 47.4223C128.388 47.4223 128.736 47.3417 129.029 47.1805C129.329 47.0193 129.586 46.7959 129.798 46.5101C130.011 46.2316 130.179 45.9056 130.304 45.5319L130.556 44.7955L126.534 32.991H129.556L132.315 42.7291H131.963L134.656 32.991H137.624L133.535 45.378C133.249 46.2353 132.901 46.9864 132.491 47.6312C132.088 48.276 131.549 48.7779 130.875 49.137C130.201 49.496 129.311 49.6755 128.204 49.6755ZM142.501 27.4844V44.6636H139.654V27.4844H142.501ZM146.215 49.6755C145.871 49.6755 145.563 49.6572 145.292 49.6206C145.021 49.5913 144.852 49.562 144.786 49.5326V47.2795C144.882 47.3234 145.043 47.3564 145.27 47.3784C145.504 47.4077 145.746 47.4223 145.995 47.4223C146.398 47.4223 146.746 47.3417 147.04 47.1805C147.34 47.0193 147.596 46.7959 147.809 46.5101C148.021 46.2316 148.19 45.9056 148.314 45.5319L148.567 44.7955L144.545 32.991H147.567L150.326 42.7291H149.974L152.667 32.991H155.635L151.546 45.378C151.26 46.2353 150.912 46.9864 150.502 47.6312C150.099 48.276 149.56 48.7779 148.886 49.137C148.212 49.496 147.322 49.6755 146.215 49.6755ZM165.754 44.6636V39.4868C165.754 39.1937 165.754 38.9372 165.754 38.7174C165.754 38.4902 165.754 38.2851 165.754 38.1019C165.754 37.5743 165.677 37.1017 165.523 36.684C165.377 36.259 165.12 35.9256 164.754 35.6838C164.395 35.442 163.897 35.3211 163.259 35.3211C162.702 35.3211 162.208 35.4567 161.775 35.7278C161.343 35.9916 161.002 36.3579 160.753 36.8269C160.511 37.2885 160.39 37.8234 160.39 38.4316L159.412 37.8271C159.412 36.8525 159.632 35.9879 160.072 35.2332C160.519 34.4711 161.116 33.8739 161.863 33.4416C162.611 33.0093 163.439 32.7932 164.347 32.7932C165.285 32.7932 166.073 32.9763 166.71 33.3427C167.355 33.7091 167.839 34.2293 168.161 34.9034C168.491 35.5776 168.656 36.3689 168.656 37.2775C168.656 37.6293 168.656 38.0249 168.656 38.4646C168.656 38.9042 168.656 39.3365 168.656 39.7615V44.6636H165.754ZM157.5 44.6636V32.991H160.39V44.6636H157.5ZM171.432 44.6636V27.4844H174.18V37.5523L173.553 37.2446L178.378 32.991H181.972L176.257 38.0799L176.906 36.8928L181.917 44.6636H178.862L175.015 38.4316L175.718 38.5525L173.85 40.2232L174.18 38.9372V44.6636H171.432Z" fill="url(#paint0_linear_101_1113)"/>
<path fill-rule="evenodd" clip-rule="evenodd" d="M44.742 50.4488C48.0979 50.4488 50.8185 47.7283 50.8185 44.3723V26.1673C50.8185 22.8114 48.0979 20.0908 44.742 20.0908H33.7042C30.5188 20.0908 27.9059 22.5419 27.6485 25.6608C27.6346 25.7617 27.6274 25.8646 27.6274 25.9693V45.6498C27.6274 46.5329 26.9115 47.2488 26.0284 47.2488H14.9905C14.1074 47.2488 13.3915 46.5329 13.3915 45.6498V27.4447C13.3915 26.5616 14.1074 25.8456 14.9905 25.8456H19.7527C20.6366 25.8456 21.3517 26.5613 21.3517 27.4437V35.8861C21.3517 37.1225 22.354 38.1248 23.5904 38.1248C24.8268 38.1248 25.8291 37.1225 25.8291 35.8861V27.4437C25.8291 24.0869 23.1078 21.3682 19.7527 21.3682H14.9905C11.6346 21.3682 8.91406 24.0888 8.91406 27.4447V45.6498C8.91406 49.0057 11.6346 51.7262 14.9905 51.7262H26.0284C29.3843 51.7262 32.1048 49.0057 32.1048 45.6498V44.8405C32.105 44.8288 32.1051 44.8171 32.1051 44.8054V26.1673C32.1051 25.2842 32.821 24.5682 33.7042 24.5682H44.742C45.6251 24.5682 46.3411 25.2842 46.3411 26.1673V44.3723C46.3411 45.2555 45.6251 45.9714 44.742 45.9714H39.9799C39.0959 45.9714 38.3808 45.2557 38.3808 44.3734V35.931C38.3808 34.6946 37.3785 33.6923 36.1421 33.6923C34.9057 33.6923 33.9034 34.6946 33.9034 35.931V44.3734C33.9034 47.7302 36.6247 50.4488 39.9799 50.4488H44.742Z" fill="url(#paint1_linear_101_1113)"/>
<circle cx="19.5918" cy="59.1757" r="3.98276" stroke="url(#paint2_linear_101_1113)" stroke-width="3.43675"/>
<circle cx="39.9062" cy="12.8242" r="3.98276" stroke="url(#paint3_linear_101_1113)" stroke-width="3.43675"/>
<defs>
<linearGradient id="paint0_linear_101_1113" x1="59.651" y1="42.7319" x2="201.97" y2="-24.4891" gradientUnits="userSpaceOnUse">
<stop stop-color="#2464BE"/>
<stop offset="1" stop-color="#05306D"/>
</linearGradient>
<linearGradient id="paint1_linear_101_1113" x1="8.98435" y1="41.2712" x2="62.6394" y2="35.2708" gradientUnits="userSpaceOnUse">
<stop stop-color="#2464BE"/>
<stop offset="1" stop-color="#05306D"/>
</linearGradient>
<linearGradient id="paint2_linear_101_1113" x1="13.9097" y1="61.1086" x2="28.5873" y2="59.8694" gradientUnits="userSpaceOnUse">
<stop stop-color="#2464BE"/>
<stop offset="1" stop-color="#05306D"/>
</linearGradient>
<linearGradient id="paint3_linear_101_1113" x1="34.2242" y1="14.757" x2="48.9017" y2="13.5179" gradientUnits="userSpaceOnUse">
<stop stop-color="#2464BE"/>
<stop offset="1" stop-color="#05306D"/>
</linearGradient>
</defs>
</svg>
